<svg xmlns="http://www.w3.org/2000/svg" viewBox="0 0 900 320" width="900" height="320">
  <rect width="900" height="320" fill="#fff"/>
  <g font-family="Arial,Helvetica,sans-serif" font-size="12" fill="#222">
    <rect x="40" y="30" width="160" height="60" rx="6" fill="#f7fbff" stroke="#cfe0ff"/>
    <text x="120" y="68" text-anchor="middle">Data Ingestion</text>
    <rect x="240" y="30" width="160" height="60" rx="6" fill="#fff7f0" stroke="#ffe0c9"/>
    <text x="320" y="68" text-anchor="middle">Feature Store</text>
    <rect x="440" y="30" width="160" height="60" rx="6" fill="#f0fff7" stroke="#c9ffd8"/>
    <text x="520" y="68" text-anchor="middle">Training Orchestration</text>
    <rect x="640" y="30" width="160" height="60" rx="6" fill="#f7f7ff" stroke="#d6d6ff"/>
    <text x="720" y="68" text-anchor="middle">Model Registry</text>
    <rect x="440" y="140" width="160" height="60" rx="6" fill="#fff7f7" stroke="#ffd6d6"/>
    <text x="520" y="178" text-anchor="middle">Serving and Inference</text>
    <path d="M200 60 L240 60" stroke="#ccc" fill="none" marker-end="url(#arrow)"/>
    <path d="M400 60 L440 60" stroke="#ccc" fill="none" marker-end="url(#arrow)"/>
    <path d="M600 60 L640 60" stroke="#ccc" fill="none" marker-end="url(#arrow)"/>
    <path d="M520 90 L520 140" stroke="#ccc" fill="none" marker-end="url(#arrow)"/>
    <defs>
      <marker id="arrow" markerWidth="10" markerHeight="10" refX="8" refY="5">
        <path d="M0 0 L10 5 L0 10 z" fill="#ccc" />
      </marker>
    </defs>
  </g>
</svg>